<svg fill="currentColor" id="Pilot Parachute" xmlns="http://www.w3.org/2000/svg" baseProfile="tiny" version="1.2" viewBox="0 0 360 512">
  <path d="M175.6,269.5v-101.8c-10.6-7.3-24.1-22.5-45.7-15.5-5.3,1.7-9.7,5-13.8,7.8-4.1,2.8-9.2,4.5-10.4,10.4,6,8,7.2,20.5,11.2,30.2,10.4,25.2,19.2,51.6,29.3,77.7,2.4,6.1,14.6,32,12.9,36.3-.6,2.9-2.8,9.8-5.2,11.2-.2-.4-.2-.6-.4-.9-5.4-8-10-28.5-14.2-38.8-11.4-27.5-21.2-57.2-32.8-84.6-4.9-11.7-6.9-30.8-16.4-38-7.5-5.6-16.5-11.2-26.8-13.8-19-4.8-40.2,16.4-42.3,28.5,4.9,3.5,7.6,9.8,11.2,14.7,5.7,7.8,12.2,15.2,18.1,23.3,16.5,22.5,35,43.8,51.8,66.5,6.7,9.1,29.9,32.1,31.9,42.3-2.9,2-3.7,4.5-7.3,5.8-.3-.4-.2-.4-.4-.6-43.8-45.8-77.1-100.7-115.7-151-.1-16.7,3.6-32.8,7.8-45.7C36.1,79.1,60.2,42.5,110,21c11.8-5.1,25.8-8,38.8-11.2,6.4-1.6,15.7-2.3,20.7-2.6,87.5-5.8,137.3,39.9,163.1,101,6.7,15.8,9.2,29.9,13.8,49.2,1.1,4.7,4.6,16.9,1.7,21.6-3.1,9.9-18.8,24.2-25,32.8-20.4,28.3-42.7,54.9-63,82.9-6.4,8.9-13.6,17.2-19.9,25.9-2.7,3.7-4,8.6-8.6,10.4,0-.3-.7-.4-.7-.7-2.8-1.7-4.6-4-5.3-7.9,9-7.1,15.6-20,22.4-29.3,17.4-23.7,36.8-46,54.4-69.9,7.7-10.5,16.3-20.4,24.2-31.1,3.7-5.1,9.8-9,12.1-15.5-6.8-7.3-10.2-17-19-22.4-17.4-10.8-46.5,2.1-54.4,13.8-19.8,52.6-39.7,105.3-59.6,157.9h-1.7c-.2-4.7-1.8-8.8-4.3-11.2,2.7-13.9,10.4-28.2,15.5-40.6,7.8-18.8,12-37.3,19.9-56.1,6.5-15.8,14.9-32.7,19-50.1-7.1-4.8-13-11.2-21.6-14.7-21.3-8.5-38.7,6.3-48.3,15.5.4,18.7.9,40.4.9,60.4v23.3c-3,13.9-2.2,46.2,0,57.8,13.9,6,17.4,31.5,4.1,36.1-6.3,2.1-13.7.8-19.6-.7-4-2.3-6.9-5.8-7.8-9.5-.7-9.4-.4-18.1,6-22.4,3.7-2.5,3.7-2.3,7.3-3.4" fill-rule="evenodd"/>
  <path d="M186.6,423.2h-12.1v55.2c0,8.4,1.4,17.1-4.3,19.9-3.3,3.1-7.6,1-11.2,0-4-8.7-2.6-25.3-2.6-38v-80.3h-1.7c-2.9-1.7-8.1.1-12.1-.9-4.7-1.1-11-2.6-14.7-5.2-16.8-11.6,3.3-37.6,10.4-44.9,7.3-.1,7.8,1.9,11.2,5.2,0,12.3-7.8,12.5-8.6,23.3l2.6.9c1.7,1,11.7,2.2,14.7.9,3.3-1.5,6.6-5.7,11.2-6.9,9.6-2.6,26,.2,31.1,3.5l2.6,3.5c4,1.8,13.4-.3,16.4-.9.5-1.5.8-2.7.9-5.2-6.3-5.6-15.9-24.5,2.6-24.2,9.2,9.7,17.8,20,15.5,38.8-10.3,8-12.7,11.3-31.9,11.2-3.8,7.4-1.7,24.1-1.7,34.5v80.3c-1.1,1.2-1.2,1.5-1.7,3.5-3.3,1.6-5,2.5-10.4,2.6-1.2-1.1-1.5-1.2-3.5-1.7-5.9-12.7-2.7-56.2-2.6-75.1Z" fill-rule="evenodd"/>
</svg>