<svg fill="currentColor" xmlns="http://www.w3.org/2000/svg" viewBox="0 0 640 512">
  <path class="cls-1" d="M495.62,398.05c-5.87.17-47.56-.07-50.79-2.52-18.21-5.57-20.08-23.32-19.51-48.11,49.85-5.47,52.02-33.36,52.02-88.41,0-20.19,1.13-39.76-6.5-52.01-10.5-16.84-27.43-17.37-49.42-23.4-40.55-11.13-82.98-13.72-132.64-18.2-12.05-1.09-32.9-4.36-46.82-1.3-17.17,3.78-36.74-.16-54.62,3.9-26.81,6.1-55.98,8.71-80.63,15.6-19.32,5.4-36.73,5.49-46.82,19.5-9.56,13.28-9.1,32.38-9.1,55.91,0,55.04,2.17,82.95,52.02,88.41.23,25.04-1.57,39.24-16.91,48.11-4.78,2.77-12.51.71-15.61,5.2,5.87,7.36,7.41,15.76,15.61,20.8,16.04,9.88,53.62,5.2,78.03,5.2h39.01c1.9-1.18,2.93-6.56,5.2-7.8,4.48-2.44,52.99-2.58,57.22,0,5.86,1.87,6.67,5.41,10.4,9.1.2,12.64-.27,26.08-2.6,35.1-6.46,3.74-49.39,9.8-62.42,5.2-3.9-1.38-5.8-7.62-9.1-9.1h-107.94c-6.5-2.17-13-4.33-19.51-6.5-18.87-9.82-34.8-28.88-37.71-54.61-47.2.3-35.11-62.3-35.11-107.91,0-18.12-3.32-45.04,3.9-57.21,5.79-9.75,17.1-15.41,31.21-16.9-1.18-98.07,48.48-154.63,109.24-191.13,16.01-9.62,33.42-12.35,53.32-18.2,38.18-11.24,121.33-7.84,153.45,5.2,78.82,31.99,139.19,93.5,139.15,204.13,46.45,4.95,35.11,53.75,35.11,102.71,0,17.38,3.8,42.36-1.3,57.21-3.3,9.58-13.35,19.09-23.33,22.02-3.56,1.05-6.84-1.39-9.11,0M241.97,186.21c78.32-1.24,144.06,9.86,204.17,26,2.59,3.98,7.57,8.23,9.1,13v26c0,26.32,4.23,58.26-11.7,68.91-14.29,9.55-57.79,10.27-78.03,15.6-14.15,3.73-46.17,13.47-61.12,9.1-23-6.73-25.97-34.18-33.81-55.91-2.6-7.21-1.74-18.42-7.8-22.1-2.16,22.68-17.81,69.56-35.11,76.71-17.13,7.08-60.52-5.86-78.03-10.4-23.67-6.14-60.97-2.98-72.82-20.8-8.34-12.54-3.9-45.73-3.9-65.01v-22.1c1.69-5.07,6.38-11.17,11.7-13,7.07-6.09,19.62-4.73,29.91-7.8,27.05-8.07,58.36-9.01,88.43-15.6,11.04-2.42,30.21,3,39.01-2.6Z"/>
</svg>