<svg fill="currentcolor" id="Plane Crash" xmlns="http://www.w3.org/2000/svg" baseProfile="tiny" version="1.2" viewBox="0 0 640 512">
  <path d="M383.5,291.5c1.4-16.4,8.2-69.3,19.8-73.8,15.5-12.8,25.2,6.5,30.6,16.2,9.6,17.2,22.2,35.5,32.4,52.2,6.5,10.7,5.7,23.6,21.6,25.2,8.3-7.5,21.1-7.9,32.4-12.6,17.9-7.4,38.6-19.8,57.6-25.2,12.1-3.4,22.9,6.1,25.2,12.6,4.6,12.8-26.8,56.6-32.4,66.6-2.4,4.3-13.8,17-10.8,19.8,6,6.3,47.1,15.3,57.6,18,20.5,43.8-56.6,55.7-61.2,90.1,2.9,3,4.1,6,5.4,10.8-8.5,5.1-21.7,11-28.8,18-3.2-1.1-1.7-.3-3.6-1.8-4.9-4.7-5.5-9.8-9-16.2-26.2-48.3,32.2-44.6,41.4-77.5-15.4-1.3-46-6.8-50.4-19.8-11.3-14.8,20.2-44.5,23.4-61.2h-3.6c-9,8-47.6,22.6-63,23.4-11.8-10.7-20.3-22.1-28.8-36-5.5-9-6.9-23.9-18-27-.7,29-8.4,60.1-14.4,86.5-11.5,6.2-67.9,24.3-72,32.4h1.8c8.8,8.9,21.4,15,30.6,23.4.5,27.5-24.2,55.6-36,73.8-3.2-1.1-1.7-.3-3.6-1.8-11-2.8-19.8-10.8-28.8-16.2l1.8-5.4c7.8-7.7,16.7-22.7,19.8-34.2h1.8c1.8-1.8-1.8-1.8-1.8-1.8-14.8-19.9-48.9-17-48.6-52.2,1.4-1.8.6-.5,1.8-3.6,10.7-6.6,22.6-14,37.8-16.2v-5.4c-17.5-4.7-25-21.5-43.2-25.2-14.8,11.3-39.1,13-57.6,19.8-20,7.4-41.9,13-63,21.6-9.3,3.8-26.3,14.9-39.6,12.6-12.5-2.1-20-10.7-28.8-16.2-8.4-5.3-19-7.1-23.4-16.2-1.9-2.8-1.9-7.4-1.8-12.6,18.8-17.4,37.7-42.6,57.6-57.6,11.7-8.8,30.8-21.5,36-36-34.3-16.4-64.4-44.1-95.5-64.8-15.3-10.2-32.9-17.6-39.6-36-5.6-15.1.5-38.4,3.6-52.2,7.7-33.7,5.8-68.5,12.6-100.9,3.7-1.9,8.6-6.6,14.4-5.4,6.9,1.4,39.4,23.2,43.2,28.8,12.3,15.9,13.1,77,18,100.9,30.6,14.3,60,34.8,88.3,52.2,34.4,21.2,70.2,36.4,104.5,57.6,19.4,12,64,45,86.5,48.6Z" fill-rule="evenodd"/>
  <path d="M311.5,228.4c-20.1-2.7-70.1-39.2-88.3-50.4-10-6.2-20.7-4.1-21.6-19.8,15.1-20.9,13.8-89.6,45-90.1,12.6,12.7,36.8,17.4,46.8,32.4,7.3,10.9,3.8,26,7.2,41.4,5.9,26.2,10.6,57.2,10.8,86.5Z" fill-rule="evenodd"/>
</svg>