<svg fill="currentColor" xmlns="http://www.w3.org/2000/svg" viewBox="0 0 640 512">
<path d="M577.2,130.7l-74.7-9.3l-28-9.3h-14l-68.2-86.4h23.1c6.8,0,12.5-1.5,12.5-3.5s-5.6-3.5-12.5-3.5h-67v7h9.3v95.8h-28
	l-38.9-46.7h-20.2l-6.2,6.2v40.5h4.7v9.3h28v1.6l-37.4,4.7v24.9l37.4,4.7v1.6h-28v9.3h-4.7v40.5l6.2,6.2h20.2l38.9-46.7h28v95.8
	h-9.3v7h67c6.8,0,12.5-1.5,12.5-3.5s-5.6-3.5-12.5-3.5h-23.1l68.2-86.4h14l28-9.3l74.7-9.3c56.1-12.5,56.1-15.5,56.1-18.7
	S633.3,143.1,577.2,130.7z"/>
<path d="M324.4,343.9l-74.7-9.3l-28-9.3h-14l-68.2-86.4h23.1c6.8,0,12.5-1.5,12.5-3.5s-5.6-3.5-12.5-3.5h-67v7h9.3v95.8h-28
	l-38.9-46.7H17.6l-6.2,6.2v40.5h4.7v9.3h28v1.6l-37.4,4.7v24.9l37.4,4.7v1.6h-28v9.3h-4.7v40.5l6.2,6.2h20.2l38.9-46.7h28v95.8h-9.3
	v7h67c6.8,0,12.5-1.5,12.5-3.5s-5.6-3.5-12.5-3.5h-23.1l68.2-86.4h14l28-9.3l74.7-9.3c56.1-12.5,56.1-15.5,56.1-18.7
	S380.5,356.4,324.4,343.9z"/>
</svg>
